<svg id="Layer_3" enable-background="new 0 0 64 64" height="512" viewBox="0 0 64 64" width="512" xmlns="http://www.w3.org/2000/svg"><path d="m58 3h-9v-1c0-.552-.448-1-1-1h-4c-.552 0-1 .448-1 1v1h-22c-.127 0-.253.024-.372.071l-10 4c-.379.153-.628.52-.628.929s.249.776.628.929l10 4c.119.047.245.071.372.071h22v1c0 .552.448 1 1 1h4c.552 0 1-.448 1-1v-1h9c2.757 0 5-2.243 5-5s-2.243-5-5-5zm-36.808 8-7.5-3 7.5-3h1.808v4h2v-4h2v2h2v-2h2v4h2v-4h2v2h2v-2h2v4h2v-4h2v6zm25.808 2h-2v-10h2zm11-2h-9v-6h9c1.654 0 3 1.346 3 3s-1.346 3-3 3z"/><path d="m14 33c1.557 0 3.021-.606 4.121-1.707 1.212-1.211 1.879-2.822 1.879-4.536v-.354c0-1.087-.279-2.164-.807-3.115l-4.319-7.773c-.353-.635-1.396-.635-1.748 0l-4.252 7.655c-.572 1.028-.874 2.193-.874 3.37v.218c0 1.713.667 3.324 1.879 4.536 1.1 1.1 2.564 1.706 4.121 1.706zm-4-6.46c0-.837.215-1.667.622-2.399l3.378-6.082 3.444 6.2c.364.654.556 1.396.556 2.144v.354c0 1.179-.459 2.288-1.293 3.122-1.446 1.446-3.968 1.446-5.414 0-.834-.834-1.293-1.942-1.293-3.122z"/><path d="m60.021 44.606c-7.485-7.484-17.436-11.606-28.021-11.606s-20.536 4.122-28.021 11.606l-2.687 2.687c-.391.391-.391 1.023 0 1.414l2.687 2.687c7.485 7.484 17.436 11.606 28.021 11.606s20.536-4.122 28.021-11.606l2.687-2.687c.391-.391.391-1.023 0-1.414zm-54.627 5.373-1.98-1.979 1.979-1.979c4.909-4.909 10.936-8.292 17.506-9.917-3.578 2.744-5.899 7.049-5.899 11.896s2.321 9.152 5.899 11.896c-6.57-1.625-12.597-5.008-17.505-9.917zm26.606-14.979c7.168 0 13 5.832 13 13s-5.832 13-13 13-13-5.832-13-13 5.832-13 13-13zm26.606 14.979c-4.909 4.909-10.936 8.292-17.506 9.917 3.579-2.744 5.9-7.049 5.9-11.896s-2.321-9.152-5.899-11.896c6.57 1.625 12.597 5.008 17.506 9.917l1.979 1.979z"/><path d="m32 55c3.86 0 7-3.14 7-7s-3.14-7-7-7-7 3.14-7 7 3.14 7 7 7zm0-12c2.757 0 5 2.243 5 5s-2.243 5-5 5-5-2.243-5-5 2.243-5 5-5z"/></svg>