<svg id="Layer_3" enable-background="new 0 0 64 64" height="512" viewBox="0 0 64 64" width="512" xmlns="http://www.w3.org/2000/svg"><path d="m23 51h2v4h-2z"/><path d="m31 51h2v4h-2z"/><path d="m50.414 13c-1.291-1.289-3.537-1.29-4.828 0l-4.586 4.586c-.645.644-1 1.501-1 2.414s.355 1.77 1 2.414l.586.586c.646.645 1.503 1 2.414 1s1.769-.355 2.414-1l4.586-4.585c.645-.645 1-1.502 1-2.415s-.355-1.77-1-2.414zm-5.414 8.585c-.535.535-1.465.535-2 0l-.586-.585c-.268-.267-.414-.622-.414-1s.146-.733.414-1l1.586-1.586 2.586 2.586zm4.586-4.585-1.586 1.586-2.586-2.586 1.586-1.585c.268-.268.622-.415 1-.415s.732.147 1 .414l.586.586c.268.267.414.622.414 1s-.146.733-.414 1z"/><path d="m46 5c-7.168 0-13 5.832-13 13s5.832 13 13 13 13-5.832 13-13-5.832-13-13-13zm0 24c-6.065 0-11-4.935-11-11s4.935-11 11-11 11 4.935 11 11-4.935 11-11 11z"/><path d="m46 1c-6.437 0-12.241 3.502-15.147 9.14-1.136 2.203-1.741 4.533-1.842 6.86h-27.011c-.553 0-1 .448-1 1v10c0 .552.447 1 1 1h1v33c0 .553.447 1 1 1h14 20 14c.553 0 1-.447 1-1v-24.578l6.914-10.238c3.64-5.112 4.101-11.483 1.233-17.044-2.906-5.638-8.71-9.14-15.147-9.14zm-43 18h26.046c.232 2.803 1.211 5.545 2.917 8h-28.963zm2 34h12v8h-12zm14 8v-16h8v16zm10 0v-16h8v16zm10 0v-8h12v8zm12-10h-12v-7c0-.553-.447-1-1-1h-20c-.553 0-1 .447-1 1v7h-12v-22h28.312l1.351 2h-22.663c-.553 0-1 .448-1 1v8c0 .553.447 1 1 1h29.416l3.755 5.56c.186.275.497.44.829.44s.643-.165.829-.44l4.171-6.176zm-38-12v-6h14v6zm16-6h7.013l4.052 6h-11.065zm29.271-6.956-12.271 18.169-12.285-18.189c-3.196-4.49-3.603-10.085-1.085-14.968 2.6-5.044 7.599-8.056 13.37-8.056s10.77 3.012 13.37 8.056c2.518 4.883 2.111 10.478-1.099 14.988z"/></svg>