<svg id="Layer_3" enable-background="new 0 0 64 64" height="512" viewBox="0 0 64 64" width="512" xmlns="http://www.w3.org/2000/svg"><path d="m16 2v60c0 .421.264.797.659.94.395.142.839.024 1.109-.3l4.232-5.078 4.231 5.078c.381.455 1.156.455 1.537 0l4.232-5.078 4.231 5.078c.381.455 1.156.455 1.537 0l4.232-5.078 4.231 5.078c.195.233.478.36.769.36.114 0 .229-.02.341-.06.395-.143.659-.519.659-.94v-60c0-.552-.447-1-1-1h-30c-.553 0-1 .448-1 1zm2 1h28v56.238l-3.231-3.879c-.381-.455-1.156-.455-1.537 0l-4.232 5.079-4.231-5.078c-.191-.228-.472-.36-.769-.36s-.578.132-.769.359l-4.231 5.079-4.231-5.078c-.381-.455-1.156-.455-1.537 0l-3.232 3.878z"/><path d="m20 19h24v2h-24z"/><path d="m20 23h24v2h-24z"/><path d="m20 27h24v2h-24z"/><path d="m20 31h24v2h-24z"/><path d="m22 51h2v-2.184c1.161-.414 2-1.514 2-2.816 0-1.654-1.346-3-3-3-.552 0-1-.448-1-1s.448-1 1-1h3v-2h-2v-2h-2v2.184c-1.161.414-2 1.514-2 2.816 0 1.654 1.346 3 3 3 .552 0 1 .448 1 1s-.448 1-1 1h-3v2h2z"/><path d="m33 37h-2v2.184c-1.161.414-2 1.514-2 2.816 0 1.654 1.346 3 3 3 .552 0 1 .448 1 1s-.448 1-1 1h-3v2h2v2h2v-2.184c1.161-.414 2-1.514 2-2.816 0-1.654-1.346-3-3-3-.552 0-1-.448-1-1s.448-1 1-1h3v-2h-2z"/><path d="m42 37h-2v2.184c-1.161.414-2 1.514-2 2.816 0 1.654 1.346 3 3 3 .552 0 1 .448 1 1s-.448 1-1 1h-3v2h2v2h2v-2.184c1.161-.414 2-1.514 2-2.816 0-1.654-1.346-3-3-3-.552 0-1-.448-1-1s.448-1 1-1h3v-2h-2z"/><path d="m27.586 16c.646.645 1.503 1 2.414 1s1.769-.355 2.414-1l4.586-4.585c.645-.645 1-1.502 1-2.415s-.355-1.77-1-2.414l-.586-.586c-1.291-1.289-3.537-1.29-4.828 0l-4.586 4.586c-.645.644-1 1.501-1 2.414s.355 1.77 1 2.414zm5.414-8.585c.268-.268.622-.415 1-.415s.732.147 1 .414l.586.586c.268.267.414.622.414 1s-.146.733-.414 1l-1.586 1.586-2.586-2.586zm-4.586 4.585 1.586-1.586 2.586 2.586-1.586 1.585c-.535.535-1.465.535-2 0l-.586-.585c-.268-.267-.414-.622-.414-1s.146-.733.414-1z"/></svg>