<svg id="Layer_3" enable-background="new 0 0 64 64" height="512" viewBox="0 0 64 64" width="512" xmlns="http://www.w3.org/2000/svg"><path d="m63 20c0-1.534-.622-3.036-1.707-4.121l-1.172-1.172c-1.1-1.101-2.564-1.707-4.121-1.707s-3.021.606-4.121 1.707l-18.293 18.293h-31.586c-.552 0-1 .447-1 1 0 10.613 6.65 19.696 16 23.317v4.683c0 .553.448 1 1 1h28c.552 0 1-.447 1-1v-4.683c9.35-3.621 16-12.704 16-23.317 0-.553-.448-1-1-1h-9.586l8.879-8.879c1.085-1.085 1.707-2.587 1.707-4.121zm-18 41h-26v-3.005c2.223.65 4.57 1.005 7 1.005h12c2.43 0 4.777-.355 7-1.005zm-7-4h-12c-10.965 0-20.156-7.715-22.446-18h56.892c-2.29 10.285-11.481 18-22.446 18zm22.8-20h-57.6c-.086-.659-.149-1.325-.178-2h57.957c-.03.675-.093 1.341-.179 2zm-24.386-4 13.586-13.586 6.586 6.586-7 7zm23.465-10.293-1.879 1.879-6.586-6.586 1.879-1.879c1.446-1.445 3.968-1.445 5.414 0l1.172 1.172c.712.713 1.121 1.699 1.121 2.707s-.409 1.994-1.121 2.707z"/><path d="m33.586 7.828c1.557-1.557 2.414-3.627 2.414-5.828 0-.553-.448-1-1-1-2.202 0-4.272.857-5.828 2.414l-.758.758c-1.557 1.557-2.414 3.627-2.414 5.828 0 .553.448 1 1 1 2.202 0 4.272-.857 5.828-2.414zm-2.172-.656c-.917.917-2.068 1.513-3.319 1.733.22-1.251.816-2.402 1.733-3.319l.758-.758c.917-.917 2.068-1.513 3.319-1.733-.22 1.251-.816 2.402-1.733 3.319z"/><path d="m18.172 28.586c1.556 1.557 3.626 2.414 5.828 2.414.552 0 1-.447 1-1 0-2.201-.857-4.271-2.414-5.828l-.758-.758c-1.556-1.557-3.626-2.414-5.828-2.414-.552 0-1 .447-1 1 0 2.201.857 4.271 2.414 5.828zm2.242-3.758.758.758c.917.917 1.513 2.068 1.733 3.319-1.251-.221-2.402-.816-3.319-1.733l-.758-.758c-.917-.917-1.513-2.068-1.733-3.319 1.251.22 2.403.816 3.319 1.733z"/><path d="m28.585 26c.645.645 1.502 1 2.415 1s1.77-.355 2.414-1l4.586-4.586c.645-.646 1-1.503 1-2.414s-.355-1.769-1-2.414l-.585-.586c-1.289-1.289-3.541-1.289-4.829 0l-4.586 4.586c-.645.646-1 1.503-1 2.414s.355 1.769 1 2.414zm5.415-8.586c.533-.535 1.465-.535 2 0l.585.586c.268.268.415.622.415 1s-.147.732-.414 1l-1.586 1.586-2.586-2.586zm-4.586 4.586 1.586-1.586 2.586 2.586-1.586 1.586c-.533.535-1.465.535-2 0l-.585-.586c-.268-.268-.415-.622-.415-1 0-.377.147-.732.414-1z"/><path d="m16.585 16c.645.645 1.502 1 2.415 1s1.77-.355 2.414-1l.586-.586c.645-.646 1-1.503 1-2.414s-.355-1.769-1-2.414l-4.585-4.586c-1.289-1.289-3.541-1.289-4.829 0l-.586.586c-.645.645-1 1.503-1 2.414s.355 1.769 1 2.414zm4.415-3c0 .378-.147.732-.414 1l-.586.586c-.533.535-1.465.535-2 0l-1.586-1.586 2.586-2.586 1.586 1.586c.267.268.414.623.414 1zm-7.586-5 .586-.586c.267-.268.622-.414 1-.414s.733.146 1 .414l1.586 1.586-2.586 2.586-1.585-1.586c-.268-.268-.415-.622-.415-1s.147-.732.414-1z"/><path d="m38 45h-3v-3c0-.553-.448-1-1-1h-4c-.552 0-1 .447-1 1v3h-3c-.552 0-1 .447-1 1v4c0 .553.448 1 1 1h3v3c0 .553.448 1 1 1h4c.552 0 1-.447 1-1v-3h3c.552 0 1-.447 1-1v-4c0-.553-.448-1-1-1zm-1 4h-3c-.552 0-1 .447-1 1v3h-2v-3c0-.553-.448-1-1-1h-3v-2h3c.552 0 1-.447 1-1v-3h2v3c0 .553.448 1 1 1h3z"/><path d="m42 13c2.206 0 4-1.794 4-4s-1.794-4-4-4-4 1.794-4 4 1.794 4 4 4zm0-6c1.103 0 2 .897 2 2s-.897 2-2 2-2-.897-2-2 .897-2 2-2z"/><path d="m8 15c-2.206 0-4 1.794-4 4s1.794 4 4 4 4-1.794 4-4-1.794-4-4-4zm0 6c-1.103 0-2-.897-2-2s.897-2 2-2 2 .897 2 2-.897 2-2 2z"/></svg>